#define cpu_width 16
#define cpu_height 16
static unsigned char cpu_bits[] = {
   0x00, 0x00, 0x00, 0x00, 0x48, 0x12, 0x48, 0x12, 0xf8, 0x1f, 0xfe, 0x7f,
   0xf8, 0x1f, 0x38, 0x1c, 0x3e, 0x7c, 0xf8, 0x1f, 0xf8, 0x1f, 0xfe, 0x7f,
   0x48, 0x12, 0x48, 0x12, 0x00, 0x00, 0x00, 0x00 };
