#define pacman_width 16
#define pacman_height 16
static unsigned char pacman_bits[] = {
   0x00, 0x00, 0xc0, 0x03, 0xf0, 0x0f, 0xf8, 0x1f, 0xcc, 0x33, 0xe4, 0x39,
   0xe4, 0x39, 0x86, 0x61, 0xce, 0x73, 0xfe, 0x7f, 0xfe, 0x7f, 0xfe, 0x7f,
   0xfe, 0x7f, 0x76, 0x6e, 0x62, 0x46, 0x00, 0x00 };
